<svg viewBox="0 0 1024 1024" version="1.1" xmlns="http://www.w3.org/2000/svg" width="256" height="256"><path d="M0 512a512 512 0 1 0 1024 0 512 512 0 1 0-1024 0Z" fill="#F2ECFF"></path><path d="M801.723733 695.330133l-273.066666-238.933333a51.2 51.2 0 1 0-67.447467 77.073067l273.066667 238.933333a51.2 51.2 0 0 0 67.447466-77.073067z" fill="#DBBBFF"></path><path d="M238.933333 494.933333a256 256 0 1 0 512 0 256 256 0 1 0-512 0Z" fill="#BC86F9"></path><path d="M494.933333 315.733333q74.24 0 126.702934 52.497067 52.497067 52.462933 52.497066 126.702933 0 2.525867-0.477866 4.983467-0.512 2.491733-1.467734 4.8128-0.955733 2.321067-2.389333 4.437333-1.365333 2.082133-3.1744 3.857067-1.774933 1.809067-3.857067 3.208533-2.116267 1.365333-4.437333 2.3552-2.321067 0.955733-4.778667 1.467734-2.491733 0.477867-5.0176 0.477866t-4.983466-0.477866q-2.491733-0.512-4.8128-1.467734-2.321067-0.955733-4.437334-2.389333-2.082133-1.365333-3.857066-3.1744-1.809067-1.774933-3.208534-3.857067-1.365333-2.116267-2.3552-4.437333-0.955733-2.321067-1.467733-4.778667-0.477867-2.491733-0.477867-5.0176 0-53.009067-37.4784-90.5216-37.512533-37.4784-90.5216-37.4784-2.525867 0-4.983466-0.477866-2.491733-0.512-4.8128-1.467734-2.321067-0.955733-4.437334-2.389333-2.082133-1.365333-3.857066-3.1744-1.809067-1.774933-3.208534-3.857067-1.365333-2.116267-2.3552-4.437333-0.955733-2.321067-1.467733-4.778667-0.477867-2.491733-0.477867-5.0176t0.477867-4.983466q0.512-2.491733 1.467733-4.8128 0.955733-2.321067 2.389334-4.437334 1.365333-2.082133 3.1744-3.857066 1.774933-1.809067 3.857066-3.208534 2.116267-1.365333 4.437334-2.3552 2.321067-0.955733 4.778666-1.467733 2.491733-0.477867 5.0176-0.477867z" fill="#FFFFFF"></path></svg>